<?xml version="1.0" encoding="UTF-8"?>
<svg xmlns="http://www.w3.org/2000/svg" xmlns:xlink="http://www.w3.org/1999/xlink" width="36px" height="30px" viewBox="0 0 36 30" version="1.1">
<g id="surface1">
<path style=" stroke:none;fill-rule:nonzero;fill:rgb(11.372549%,60.784314%,94.117647%);fill-opacity:1;" d="M 32.21875 7.542969 C 32.242188 7.863281 32.242188 8.179688 32.242188 8.503906 C 32.242188 18.316406 24.867188 29.632812 11.382812 29.632812 L 11.382812 29.628906 C 7.398438 29.632812 3.5 28.476562 0.144531 26.296875 C 0.722656 26.367188 1.304688 26.40625 1.890625 26.40625 C 5.191406 26.410156 8.398438 25.285156 10.996094 23.21875 C 7.859375 23.160156 5.105469 21.089844 4.144531 18.0625 C 5.246094 18.277344 6.375 18.234375 7.457031 17.933594 C 4.035156 17.234375 1.574219 14.191406 1.574219 10.65625 C 1.574219 10.625 1.574219 10.59375 1.574219 10.5625 C 2.59375 11.136719 3.734375 11.457031 4.902344 11.492188 C 1.679688 9.308594 0.6875 4.96875 2.632812 1.574219 C 6.355469 6.214844 11.847656 9.035156 17.742188 9.332031 C 17.152344 6.753906 17.957031 4.050781 19.863281 2.238281 C 22.816406 -0.574219 27.457031 -0.429688 30.234375 2.558594 C 31.875 2.230469 33.449219 1.621094 34.890625 0.757812 C 34.34375 2.476562 33.195312 3.9375 31.667969 4.863281 C 33.121094 4.691406 34.539062 4.296875 35.875 3.695312 C 34.890625 5.191406 33.652344 6.492188 32.21875 7.542969 Z M 32.21875 7.542969 "/>
</g>
</svg>
